<svg xmlns="http://www.w3.org/2000/svg" xmlns:xlink="http://www.w3.org/1999/xlink" width="120" zoomAndPan="magnify" viewBox="0 0 90 44.999999" height="60" preserveAspectRatio="xMidYMid meet" version="1.0"><defs><g/><clipPath id="9092113aa4"><path d="M 25.34375 2.75 L 64.324219 2.75 L 64.324219 24.285156 L 25.34375 24.285156 Z M 25.34375 2.75 " clip-rule="nonzero"/></clipPath><clipPath id="06368b2f25"><path d="M 25.34375 6 L 64.324219 6 L 64.324219 24.285156 L 25.34375 24.285156 Z M 25.34375 6 " clip-rule="nonzero"/></clipPath><clipPath id="8ee53adad7"><path d="M 25.34375 2.75 L 64 2.75 L 64 24.285156 L 25.34375 24.285156 Z M 25.34375 2.75 " clip-rule="nonzero"/></clipPath></defs><rect x="-9" width="108" fill="#ffffff" y="-4.5" height="53.999999" fill-opacity="1"/><rect x="-9" width="108" fill="#ffffff" y="-4.5" height="53.999999" fill-opacity="1"/><g clip-path="url(#9092113aa4)"><path fill="#2a7c69" d="M 60.15625 19.820312 C 60.15625 20.75 60.15625 21.683594 60.15625 22.617188 C 60.15625 22.816406 59.847656 22.816406 59.847656 22.617188 C 59.847656 21.683594 59.847656 20.75 59.847656 19.820312 C 59.847656 19.621094 60.15625 19.621094 60.15625 19.820312 Z M 63.179688 19.820312 C 63.179688 20.75 63.179688 21.683594 63.179688 22.617188 C 63.179688 22.816406 63.492188 22.816406 63.492188 22.617188 C 63.492188 21.683594 63.492188 20.75 63.492188 19.820312 C 63.492188 19.621094 63.179688 19.621094 63.179688 19.820312 Z M 61.511719 19.820312 C 61.511719 20.75 61.511719 21.683594 61.511719 22.617188 C 61.511719 22.816406 61.824219 22.816406 61.824219 22.617188 C 61.824219 21.683594 61.824219 20.75 61.824219 19.820312 C 61.824219 19.621094 61.511719 19.621094 61.511719 19.820312 Z M 56.511719 19.820312 C 56.511719 20.75 56.511719 21.683594 56.511719 22.617188 C 56.511719 22.816406 56.824219 22.816406 56.824219 22.617188 C 56.824219 21.683594 56.824219 20.75 56.824219 19.820312 C 56.824219 19.621094 56.511719 19.621094 56.511719 19.820312 Z M 54.847656 19.820312 C 54.847656 20.75 54.847656 21.683594 54.847656 22.617188 C 54.847656 22.816406 55.160156 22.816406 55.160156 22.617188 C 55.160156 21.683594 55.160156 20.75 55.160156 19.820312 C 55.160156 19.621094 54.847656 19.621094 54.847656 19.820312 Z M 57.226562 27.773438 C 54.019531 27.773438 50.808594 27.773438 47.601562 27.773438 C 44.410156 27.773438 41.214844 27.773438 38.023438 27.773438 C 36.222656 27.773438 34.421875 27.773438 32.621094 27.773438 C 32.417969 27.773438 32.417969 28.082031 32.621094 28.082031 C 35.828125 28.082031 39.039062 28.082031 42.246094 28.082031 C 45.441406 28.082031 48.632812 28.082031 51.824219 28.082031 C 53.625 28.082031 55.425781 28.082031 57.226562 28.082031 C 57.429688 28.082031 57.429688 27.773438 57.226562 27.773438 Z M 64.125 24.140625 C 62.441406 24.140625 60.753906 24.140625 59.066406 24.140625 C 58.828125 24 58.558594 23.933594 58.289062 23.964844 C 58.113281 23.984375 57.945312 24.046875 57.792969 24.140625 C 54.894531 24.140625 52 24.140625 49.101562 24.140625 C 44.121094 24.140625 39.136719 24.140625 34.15625 24.140625 C 31.34375 24.140625 28.53125 24.140625 25.722656 24.140625 C 25.523438 24.140625 25.523438 24.453125 25.722656 24.453125 C 30.730469 24.453125 35.738281 24.453125 40.746094 24.453125 C 45.730469 24.453125 50.710938 24.453125 55.695312 24.453125 C 56.273438 24.453125 56.855469 24.453125 57.4375 24.453125 C 57.1875 24.742188 57.027344 25.132812 57.027344 25.535156 C 56.742188 25.167969 56.28125 24.980469 55.851562 25.054688 C 55.488281 25.117188 55.160156 25.363281 54.957031 25.703125 C 54.738281 25.703125 54.515625 25.703125 54.296875 25.703125 C 54.195312 25.6875 54.097656 25.683594 53.996094 25.699219 C 53.988281 25.699219 53.980469 25.699219 53.972656 25.703125 C 52.109375 25.703125 50.242188 25.703125 48.378906 25.703125 C 44.257812 25.703125 40.136719 25.703125 36.019531 25.703125 C 33.695312 25.703125 31.371094 25.703125 29.046875 25.703125 C 28.84375 25.703125 28.84375 26.011719 29.046875 26.011719 C 33.1875 26.011719 37.328125 26.011719 41.46875 26.011719 C 45.480469 26.011719 49.492188 26.011719 53.503906 26.011719 C 53.441406 26.101562 53.398438 26.210938 53.390625 26.328125 L 53.378906 26.640625 L 59.835938 26.613281 L 59.832031 26.601562 L 61.964844 26.601562 C 61.933594 26.25 61.890625 25.871094 61.652344 25.613281 C 61.546875 25.496094 61.40625 25.410156 61.257812 25.351562 C 60.878906 25.195312 60.441406 25.183594 60.054688 25.324219 C 59.984375 25.351562 59.910156 25.386719 59.84375 25.425781 C 59.835938 25.351562 59.828125 25.277344 59.816406 25.207031 C 59.761719 24.917969 59.625 24.660156 59.441406 24.453125 C 61.003906 24.453125 62.566406 24.453125 64.125 24.453125 C 64.324219 24.453125 64.328125 24.140625 64.125 24.140625 Z M 37.050781 23.136719 C 37.007812 22.941406 36.929688 22.761719 36.824219 22.601562 C 36.824219 22.503906 36.824219 22.40625 36.824219 22.308594 L 38.179688 22.308594 C 38.179688 22.410156 38.179688 22.515625 38.179688 22.617188 C 38.179688 22.816406 38.492188 22.816406 38.492188 22.617188 C 38.492188 22.515625 38.492188 22.410156 38.492188 22.308594 L 39.847656 22.308594 C 39.847656 22.410156 39.847656 22.515625 39.847656 22.617188 C 39.847656 22.816406 40.160156 22.816406 40.160156 22.617188 C 40.160156 22.515625 40.160156 22.410156 40.160156 22.308594 L 41.515625 22.308594 C 41.515625 22.410156 41.515625 22.515625 41.515625 22.617188 C 41.515625 22.816406 41.824219 22.816406 41.824219 22.617188 C 41.824219 22.515625 41.824219 22.410156 41.824219 22.308594 L 43.179688 22.308594 C 43.179688 22.410156 43.179688 22.515625 43.179688 22.617188 C 43.179688 22.816406 43.492188 22.816406 43.492188 22.617188 C 43.492188 22.515625 43.492188 22.410156 43.492188 22.308594 L 44.847656 22.308594 C 44.847656 22.410156 44.847656 22.515625 44.847656 22.617188 C 44.847656 22.816406 45.160156 22.816406 45.160156 22.617188 C 45.160156 22.515625 45.160156 22.410156 45.160156 22.308594 L 46.515625 22.308594 C 46.515625 22.410156 46.515625 22.515625 46.515625 22.617188 C 46.515625 22.816406 46.824219 22.816406 46.824219 22.617188 C 46.824219 22.515625 46.824219 22.410156 46.824219 22.308594 L 48.179688 22.308594 C 48.179688 22.410156 48.179688 22.515625 48.179688 22.617188 C 48.179688 22.816406 48.492188 22.816406 48.492188 22.617188 C 48.492188 22.515625 48.492188 22.410156 48.492188 22.308594 L 49.847656 22.308594 C 49.847656 22.410156 49.847656 22.515625 49.847656 22.617188 C 49.847656 22.816406 50.160156 22.816406 50.160156 22.617188 C 50.160156 22.515625 50.160156 22.410156 50.160156 22.308594 L 51.515625 22.308594 C 51.515625 22.410156 51.515625 22.515625 51.515625 22.617188 C 51.515625 22.816406 51.824219 22.816406 51.824219 22.617188 C 51.824219 22.515625 51.824219 22.410156 51.824219 22.308594 L 53.179688 22.308594 C 53.179688 22.410156 53.179688 22.515625 53.179688 22.617188 C 53.179688 22.816406 53.492188 22.816406 53.492188 22.617188 C 53.492188 22.515625 53.492188 22.410156 53.492188 22.308594 L 53.8125 22.308594 L 53.8125 14.390625 L 55.503906 14.390625 L 44.816406 8.457031 C 44.816406 8.148438 44.816406 7.835938 44.816406 7.527344 C 44.992188 7.527344 45.171875 7.527344 45.351562 7.527344 C 45.554688 7.527344 45.554688 7.21875 45.351562 7.21875 C 45.171875 7.21875 44.992188 7.21875 44.816406 7.21875 C 44.816406 7.070312 44.816406 6.925781 44.816406 6.777344 C 44.816406 6.578125 44.503906 6.578125 44.503906 6.777344 C 44.503906 6.925781 44.503906 7.070312 44.503906 7.21875 C 44.324219 7.21875 44.144531 7.21875 43.964844 7.21875 C 43.765625 7.21875 43.765625 7.527344 43.964844 7.527344 C 44.144531 7.527344 44.324219 7.527344 44.503906 7.527344 C 44.503906 7.875 44.503906 8.222656 44.503906 8.570312 L 34.101562 14.390625 L 35.648438 14.390625 L 35.648438 21.773438 C 35.488281 21.738281 35.320312 21.722656 35.160156 21.734375 C 35.160156 21.09375 35.160156 20.457031 35.160156 19.820312 C 35.160156 19.621094 34.847656 19.621094 34.847656 19.820312 C 34.847656 20.472656 34.847656 21.128906 34.847656 21.78125 C 34.75 21.808594 34.65625 21.84375 34.566406 21.890625 C 34.066406 22.140625 33.691406 22.632812 33.699219 23.25 C 33.628906 23.0625 33.53125 22.894531 33.414062 22.75 C 33.457031 22.726562 33.492188 22.683594 33.492188 22.617188 C 33.492188 21.683594 33.492188 20.75 33.492188 19.820312 C 33.492188 19.621094 33.179688 19.621094 33.179688 19.820312 C 33.179688 20.714844 33.179688 21.613281 33.179688 22.507812 C 32.878906 22.25 32.5 22.101562 32.113281 22.078125 L 32.113281 10.296875 C 33.328125 10.945312 34.675781 11.808594 35.675781 12.644531 C 35.882812 11.492188 35.632812 10.246094 35.003906 9.300781 C 34.714844 8.867188 34.351562 8.5 33.941406 8.21875 C 34.894531 7.515625 35.90625 6.910156 36.953125 6.402344 C 36.160156 5.628906 35.070312 5.25 34.023438 5.386719 C 33.542969 5.449219 33.082031 5.621094 32.660156 5.875 C 32.609375 5.609375 32.539062 5.347656 32.441406 5.097656 C 32.03125 4.015625 31.195312 3.144531 30.199219 2.757812 C 30.300781 3.785156 30.339844 4.824219 30.3125 5.859375 C 29.894531 5.613281 29.441406 5.449219 28.976562 5.386719 C 27.929688 5.25 26.835938 5.628906 26.042969 6.402344 C 26.960938 6.84375 27.84375 7.363281 28.691406 7.957031 C 28.28125 8.238281 27.917969 8.601562 27.632812 9.03125 C 27.003906 9.976562 26.753906 11.222656 26.960938 12.378906 C 27.9375 11.5625 29.421875 10.878906 30.679688 10.289062 L 30.679688 21.113281 C 30.546875 21.046875 30.40625 21 30.261719 20.976562 C 30.226562 20.96875 30.191406 20.964844 30.160156 20.960938 C 30.160156 20.582031 30.160156 20.199219 30.160156 19.820312 C 30.160156 19.621094 29.847656 19.621094 29.847656 19.820312 C 29.847656 20.199219 29.847656 20.582031 29.847656 20.960938 C 29.410156 21 28.980469 21.203125 28.632812 21.507812 C 28.585938 21.472656 28.539062 21.441406 28.492188 21.410156 C 28.492188 20.878906 28.492188 20.351562 28.492188 19.820312 C 28.492188 19.621094 28.179688 19.621094 28.179688 19.820312 C 28.179688 20.304688 28.179688 20.792969 28.179688 21.28125 C 27.890625 21.199219 27.574219 21.226562 27.296875 21.367188 C 27.113281 21.460938 26.953125 21.605469 26.824219 21.78125 C 26.824219 21.125 26.824219 20.472656 26.824219 19.820312 C 26.824219 19.621094 26.515625 19.621094 26.515625 19.820312 C 26.515625 20.742188 26.515625 21.660156 26.515625 22.582031 C 26.292969 22.492188 25.949219 22.390625 25.683594 22.496094 C 25.054688 22.75 25.105469 23.644531 25.105469 23.644531 L 37.050781 23.644531 Z M 54.601562 9.03125 C 53.972656 9.976562 53.722656 11.222656 53.925781 12.378906 C 54.90625 11.5625 56.390625 10.878906 57.648438 10.289062 L 57.648438 22.824219 L 59.082031 22.824219 L 59.082031 10.296875 C 60.296875 10.945312 61.640625 11.808594 62.644531 12.644531 C 62.847656 11.492188 62.597656 10.246094 61.972656 9.300781 C 61.683594 8.867188 61.320312 8.5 60.90625 8.21875 C 61.863281 7.515625 62.871094 6.910156 63.921875 6.402344 C 63.128906 5.628906 62.035156 5.25 60.988281 5.386719 C 60.511719 5.449219 60.046875 5.621094 59.625 5.875 C 59.574219 5.609375 59.503906 5.347656 59.410156 5.097656 C 58.996094 4.015625 58.160156 3.144531 57.167969 2.757812 C 57.269531 3.785156 57.308594 4.824219 57.277344 5.859375 C 56.863281 5.613281 56.410156 5.449219 55.941406 5.386719 C 54.894531 5.25 53.804688 5.628906 53.011719 6.402344 C 53.925781 6.84375 54.8125 7.363281 55.65625 7.957031 C 55.25 8.238281 54.886719 8.601562 54.601562 9.03125 Z M 54.601562 9.03125 " fill-opacity="1" fill-rule="nonzero"/></g><path fill="#f0eccb" d="M 38.492188 22.292969 L 39.847656 22.292969 C 39.847656 22.296875 39.847656 22.300781 39.847656 22.308594 L 38.492188 22.308594 C 38.492188 22.300781 38.492188 22.296875 38.492188 22.292969 Z M 50.160156 22.308594 L 51.515625 22.308594 C 51.515625 22.300781 51.515625 22.296875 51.515625 22.292969 L 50.160156 22.292969 C 50.160156 22.296875 50.160156 22.300781 50.160156 22.308594 Z M 44.785156 14.390625 L 35.648438 14.390625 L 35.648438 21.773438 C 35.824219 21.816406 36 21.882812 36.160156 21.972656 C 36.285156 22.046875 36.40625 22.132812 36.515625 22.230469 C 36.515625 21.425781 36.515625 20.625 36.515625 19.820312 C 36.515625 19.621094 36.824219 19.621094 36.824219 19.820312 C 36.824219 20.648438 36.824219 21.476562 36.824219 22.308594 L 38.179688 22.308594 C 38.179688 22.300781 38.179688 22.296875 38.179688 22.292969 L 37.402344 22.292969 L 37.402344 17.539062 C 37.402344 16.753906 38.042969 16.117188 38.832031 16.117188 L 39.542969 16.117188 C 40.332031 16.117188 40.972656 16.753906 40.972656 17.539062 L 40.972656 22.292969 L 40.160156 22.292969 C 40.160156 22.296875 40.160156 22.300781 40.160156 22.308594 L 41.515625 22.308594 C 41.515625 21.476562 41.515625 20.648438 41.515625 19.820312 C 41.515625 19.621094 41.824219 19.621094 41.824219 19.820312 C 41.824219 20.648438 41.824219 21.476562 41.824219 22.308594 L 43.179688 22.308594 C 43.179688 22.300781 43.179688 22.296875 43.179688 22.292969 L 42.515625 22.292969 L 42.515625 16.65625 C 42.515625 16.605469 42.519531 16.558594 42.523438 16.511719 C 42.523438 16.5 42.523438 16.488281 42.527344 16.480469 C 42.53125 16.4375 42.539062 16.394531 42.546875 16.351562 C 42.546875 16.335938 42.550781 16.320312 42.554688 16.304688 C 42.5625 16.277344 42.570312 16.25 42.578125 16.21875 C 42.585938 16.1875 42.597656 16.160156 42.605469 16.128906 C 42.613281 16.113281 42.617188 16.097656 42.625 16.082031 C 42.644531 16.03125 42.664062 15.980469 42.691406 15.933594 C 42.957031 15.414062 43.496094 15.058594 44.125 15.058594 L 45.089844 15.058594 C 45.101562 15.058594 45.109375 15.058594 45.117188 15.058594 C 45.15625 15.058594 45.195312 15.0625 45.234375 15.066406 C 45.800781 15.113281 46.277344 15.453125 46.523438 15.933594 C 46.527344 15.9375 46.53125 15.945312 46.535156 15.953125 C 46.554688 15.996094 46.574219 16.039062 46.59375 16.082031 C 46.597656 16.097656 46.601562 16.113281 46.609375 16.128906 C 46.617188 16.160156 46.628906 16.1875 46.636719 16.222656 C 46.644531 16.25 46.652344 16.277344 46.660156 16.304688 C 46.664062 16.320312 46.667969 16.335938 46.671875 16.351562 C 46.679688 16.394531 46.683594 16.4375 46.691406 16.480469 C 46.691406 16.488281 46.691406 16.5 46.691406 16.511719 C 46.695312 16.558594 46.699219 16.605469 46.699219 16.65625 L 46.699219 19.671875 C 46.765625 19.683594 46.824219 19.730469 46.824219 19.820312 C 46.824219 20.648438 46.824219 21.476562 46.824219 22.308594 L 48.179688 22.308594 C 48.179688 21.476562 48.179688 20.648438 48.179688 19.820312 C 48.179688 19.761719 48.207031 19.722656 48.242188 19.699219 L 48.242188 17.539062 C 48.242188 16.753906 48.882812 16.117188 49.671875 16.117188 L 50.382812 16.117188 C 51.171875 16.117188 51.8125 16.753906 51.8125 17.539062 L 51.8125 19.761719 C 51.820312 19.777344 51.824219 19.796875 51.824219 19.820312 C 51.824219 20.648438 51.824219 21.476562 51.824219 22.308594 L 53.179688 22.308594 C 53.179688 21.476562 53.179688 20.648438 53.179688 19.820312 C 53.179688 19.621094 53.492188 19.621094 53.492188 19.820312 C 53.492188 20.648438 53.492188 21.476562 53.492188 22.308594 L 53.8125 22.308594 L 53.8125 14.390625 Z M 45.160156 22.292969 C 45.160156 22.296875 45.160156 22.300781 45.160156 22.308594 L 46.515625 22.308594 C 46.515625 22.300781 46.515625 22.296875 46.515625 22.292969 Z M 43.492188 22.292969 C 43.492188 22.296875 43.492188 22.300781 43.492188 22.308594 L 44.847656 22.308594 C 44.847656 22.300781 44.847656 22.296875 44.847656 22.292969 Z M 48.492188 22.308594 L 49.847656 22.308594 C 49.847656 22.300781 49.847656 22.296875 49.847656 22.292969 L 48.492188 22.292969 C 48.492188 22.296875 48.492188 22.300781 48.492188 22.308594 Z M 48.492188 22.308594 " fill-opacity="1" fill-rule="nonzero"/><path fill="#ffc86f" d="M 58.421875 8.652344 C 58.421875 9.257812 57.925781 9.75 57.316406 9.75 C 56.703125 9.75 56.210938 9.257812 56.210938 8.652344 C 56.210938 8.046875 56.703125 7.554688 57.316406 7.554688 C 57.925781 7.554688 58.421875 8.046875 58.421875 8.652344 Z M 59.710938 6.363281 C 59.101562 6.363281 58.605469 6.855469 58.605469 7.460938 C 58.605469 8.066406 59.101562 8.558594 59.710938 8.558594 C 60.324219 8.558594 60.816406 8.066406 60.816406 7.460938 C 60.816406 6.855469 60.324219 6.363281 59.710938 6.363281 Z M 30.347656 7.554688 C 29.738281 7.554688 29.242188 8.046875 29.242188 8.652344 C 29.242188 9.257812 29.738281 9.75 30.347656 9.75 C 30.957031 9.75 31.453125 9.257812 31.453125 8.652344 C 31.453125 8.046875 30.957031 7.554688 30.347656 7.554688 Z M 32.746094 6.363281 C 32.132812 6.363281 31.640625 6.855469 31.640625 7.460938 C 31.640625 8.066406 32.132812 8.558594 32.746094 8.558594 C 33.355469 8.558594 33.851562 8.066406 33.851562 7.460938 C 33.851562 6.855469 33.355469 6.363281 32.746094 6.363281 Z M 32.746094 6.363281 " fill-opacity="1" fill-rule="nonzero"/><path fill="#70cdc6" d="M 26.824219 19.820312 C 26.824219 20.472656 26.824219 21.125 26.824219 21.78125 C 26.660156 22.007812 26.550781 22.292969 26.527344 22.589844 C 26.523438 22.585938 26.519531 22.585938 26.515625 22.582031 C 26.515625 21.660156 26.515625 20.742188 26.515625 19.820312 C 26.515625 19.621094 26.824219 19.621094 26.824219 19.820312 Z M 28.179688 19.820312 C 28.179688 20.304688 28.179688 20.792969 28.179688 21.28125 C 28.289062 21.308594 28.394531 21.351562 28.492188 21.410156 C 28.492188 20.878906 28.492188 20.351562 28.492188 19.820312 C 28.492188 19.621094 28.179688 19.621094 28.179688 19.820312 Z M 29.847656 19.820312 C 29.847656 20.199219 29.847656 20.582031 29.847656 20.960938 C 29.953125 20.953125 30.054688 20.953125 30.160156 20.960938 C 30.160156 20.582031 30.160156 20.199219 30.160156 19.820312 C 30.160156 19.621094 29.847656 19.621094 29.847656 19.820312 Z M 31.515625 19.820312 C 31.515625 20.574219 31.515625 21.328125 31.515625 22.082031 C 31.519531 22.105469 31.527344 22.125 31.535156 22.148438 C 31.628906 22.121094 31.726562 22.101562 31.824219 22.089844 C 31.824219 21.332031 31.824219 20.574219 31.824219 19.820312 C 31.824219 19.621094 31.515625 19.621094 31.515625 19.820312 Z M 33.179688 19.820312 C 33.179688 20.714844 33.179688 21.613281 33.179688 22.507812 C 33.265625 22.578125 33.34375 22.660156 33.414062 22.75 C 33.457031 22.726562 33.492188 22.683594 33.492188 22.617188 C 33.492188 21.683594 33.492188 20.75 33.492188 19.820312 C 33.492188 19.621094 33.179688 19.621094 33.179688 19.820312 Z M 34.847656 19.820312 C 34.847656 20.472656 34.847656 21.128906 34.847656 21.78125 C 34.949219 21.753906 35.054688 21.738281 35.160156 21.734375 C 35.160156 21.09375 35.160156 20.457031 35.160156 19.820312 C 35.160156 19.621094 34.847656 19.621094 34.847656 19.820312 Z M 36.515625 19.820312 C 36.515625 20.625 36.515625 21.425781 36.515625 22.230469 C 36.632812 22.339844 36.738281 22.464844 36.824219 22.601562 C 36.824219 22.503906 36.824219 22.40625 36.824219 22.308594 C 36.824219 21.476562 36.824219 20.648438 36.824219 19.820312 C 36.824219 19.621094 36.515625 19.621094 36.515625 19.820312 Z M 38.179688 19.820312 C 38.179688 20.644531 38.179688 21.46875 38.179688 22.292969 C 38.179688 22.296875 38.179688 22.300781 38.179688 22.308594 C 38.179688 22.410156 38.179688 22.515625 38.179688 22.617188 C 38.179688 22.816406 38.492188 22.816406 38.492188 22.617188 C 38.492188 22.515625 38.492188 22.410156 38.492188 22.308594 C 38.492188 22.300781 38.492188 22.296875 38.492188 22.292969 C 38.492188 21.46875 38.492188 20.644531 38.492188 19.820312 C 38.492188 19.621094 38.179688 19.621094 38.179688 19.820312 Z M 39.847656 19.820312 C 39.847656 20.644531 39.847656 21.46875 39.847656 22.292969 C 39.847656 22.296875 39.847656 22.300781 39.847656 22.308594 C 39.847656 22.410156 39.847656 22.515625 39.847656 22.617188 C 39.847656 22.816406 40.160156 22.816406 40.160156 22.617188 C 40.160156 22.515625 40.160156 22.410156 40.160156 22.308594 C 40.160156 22.300781 40.160156 22.296875 40.160156 22.292969 C 40.160156 21.46875 40.160156 20.644531 40.160156 19.820312 C 40.160156 19.621094 39.847656 19.621094 39.847656 19.820312 Z M 41.515625 19.820312 C 41.515625 20.648438 41.515625 21.476562 41.515625 22.308594 C 41.515625 22.410156 41.515625 22.515625 41.515625 22.617188 C 41.515625 22.816406 41.824219 22.816406 41.824219 22.617188 C 41.824219 22.515625 41.824219 22.410156 41.824219 22.308594 C 41.824219 21.476562 41.824219 20.648438 41.824219 19.820312 C 41.824219 19.621094 41.515625 19.621094 41.515625 19.820312 Z M 43.179688 19.820312 C 43.179688 20.644531 43.179688 21.46875 43.179688 22.292969 C 43.179688 22.296875 43.179688 22.300781 43.179688 22.308594 C 43.179688 22.410156 43.179688 22.515625 43.179688 22.617188 C 43.179688 22.816406 43.492188 22.816406 43.492188 22.617188 C 43.492188 22.515625 43.492188 22.410156 43.492188 22.308594 C 43.492188 22.300781 43.492188 22.296875 43.492188 22.292969 C 43.492188 21.46875 43.492188 20.644531 43.492188 19.820312 C 43.492188 19.621094 43.179688 19.621094 43.179688 19.820312 Z M 44.847656 19.820312 C 44.847656 20.644531 44.847656 21.46875 44.847656 22.292969 C 44.847656 22.296875 44.847656 22.300781 44.847656 22.308594 C 44.847656 22.410156 44.847656 22.515625 44.847656 22.617188 C 44.847656 22.816406 45.160156 22.816406 45.160156 22.617188 C 45.160156 22.515625 45.160156 22.410156 45.160156 22.308594 C 45.160156 22.300781 45.160156 22.296875 45.160156 22.292969 C 45.160156 21.46875 45.160156 20.644531 45.160156 19.820312 C 45.160156 19.621094 44.847656 19.621094 44.847656 19.820312 Z M 46.699219 19.671875 C 46.613281 19.65625 46.515625 19.707031 46.515625 19.820312 C 46.515625 20.644531 46.515625 21.46875 46.515625 22.292969 C 46.515625 22.296875 46.515625 22.300781 46.515625 22.308594 C 46.515625 22.410156 46.515625 22.515625 46.515625 22.617188 C 46.515625 22.816406 46.824219 22.816406 46.824219 22.617188 C 46.824219 22.515625 46.824219 22.410156 46.824219 22.308594 C 46.824219 21.476562 46.824219 20.648438 46.824219 19.820312 C 46.824219 19.730469 46.765625 19.683594 46.699219 19.671875 Z M 48.242188 19.699219 C 48.207031 19.722656 48.179688 19.761719 48.179688 19.820312 C 48.179688 20.648438 48.179688 21.476562 48.179688 22.308594 C 48.179688 22.410156 48.179688 22.515625 48.179688 22.617188 C 48.179688 22.816406 48.492188 22.816406 48.492188 22.617188 C 48.492188 22.515625 48.492188 22.410156 48.492188 22.308594 C 48.492188 22.300781 48.492188 22.296875 48.492188 22.292969 C 48.492188 21.46875 48.492188 20.644531 48.492188 19.820312 C 48.492188 19.675781 48.332031 19.636719 48.242188 19.699219 Z M 49.847656 19.820312 C 49.847656 20.644531 49.847656 21.46875 49.847656 22.292969 C 49.847656 22.296875 49.847656 22.300781 49.847656 22.308594 C 49.847656 22.410156 49.847656 22.515625 49.847656 22.617188 C 49.847656 22.816406 50.160156 22.816406 50.160156 22.617188 C 50.160156 22.515625 50.160156 22.410156 50.160156 22.308594 C 50.160156 22.300781 50.160156 22.296875 50.160156 22.292969 C 50.160156 21.46875 50.160156 20.644531 50.160156 19.820312 C 50.160156 19.621094 49.847656 19.621094 49.847656 19.820312 Z M 51.515625 19.820312 C 51.515625 20.644531 51.515625 21.46875 51.515625 22.292969 C 51.515625 22.296875 51.515625 22.300781 51.515625 22.308594 C 51.515625 22.410156 51.515625 22.515625 51.515625 22.617188 C 51.515625 22.816406 51.824219 22.816406 51.824219 22.617188 C 51.824219 22.515625 51.824219 22.410156 51.824219 22.308594 C 51.824219 21.476562 51.824219 20.648438 51.824219 19.820312 C 51.824219 19.796875 51.820312 19.777344 51.8125 19.761719 C 51.761719 19.621094 51.515625 19.640625 51.515625 19.820312 Z M 53.179688 19.820312 C 53.179688 20.648438 53.179688 21.476562 53.179688 22.308594 C 53.179688 22.410156 53.179688 22.515625 53.179688 22.617188 C 53.179688 22.816406 53.492188 22.816406 53.492188 22.617188 C 53.492188 22.515625 53.492188 22.410156 53.492188 22.308594 C 53.492188 21.476562 53.492188 20.648438 53.492188 19.820312 C 53.492188 19.621094 53.179688 19.621094 53.179688 19.820312 Z M 54.847656 19.820312 C 54.847656 20.75 54.847656 21.683594 54.847656 22.617188 C 54.847656 22.816406 55.160156 22.816406 55.160156 22.617188 C 55.160156 21.683594 55.160156 20.75 55.160156 19.820312 C 55.160156 19.621094 54.847656 19.621094 54.847656 19.820312 Z M 56.511719 19.820312 C 56.511719 20.75 56.511719 21.683594 56.511719 22.617188 C 56.511719 22.816406 56.824219 22.816406 56.824219 22.617188 C 56.824219 21.683594 56.824219 20.75 56.824219 19.820312 C 56.824219 19.621094 56.511719 19.621094 56.511719 19.820312 Z M 58.179688 19.820312 C 58.179688 20.75 58.179688 21.683594 58.179688 22.617188 C 58.179688 22.816406 58.492188 22.816406 58.492188 22.617188 C 58.492188 21.683594 58.492188 20.75 58.492188 19.820312 C 58.492188 19.621094 58.179688 19.621094 58.179688 19.820312 Z M 59.847656 19.820312 C 59.847656 20.75 59.847656 21.683594 59.847656 22.617188 C 59.847656 22.816406 60.15625 22.816406 60.15625 22.617188 C 60.15625 21.683594 60.15625 20.75 60.15625 19.820312 C 60.15625 19.621094 59.847656 19.621094 59.847656 19.820312 Z M 61.511719 19.820312 C 61.511719 20.75 61.511719 21.683594 61.511719 22.617188 C 61.511719 22.816406 61.824219 22.816406 61.824219 22.617188 C 61.824219 21.683594 61.824219 20.75 61.824219 19.820312 C 61.824219 19.621094 61.511719 19.621094 61.511719 19.820312 Z M 63.179688 19.820312 C 63.179688 20.75 63.179688 21.683594 63.179688 22.617188 C 63.179688 22.816406 63.492188 22.816406 63.492188 22.617188 C 63.492188 21.683594 63.492188 20.75 63.492188 19.820312 C 63.492188 19.621094 63.179688 19.621094 63.179688 19.820312 Z M 63.179688 19.820312 " fill-opacity="1" fill-rule="nonzero"/><g clip-path="url(#06368b2f25)"><path fill="#da6220" d="M 44.503906 8.570312 C 44.503906 8.222656 44.503906 7.875 44.503906 7.527344 C 44.324219 7.527344 44.144531 7.527344 43.964844 7.527344 C 43.765625 7.527344 43.765625 7.21875 43.964844 7.21875 C 44.144531 7.21875 44.324219 7.21875 44.503906 7.21875 C 44.503906 7.070312 44.503906 6.925781 44.503906 6.777344 C 44.503906 6.578125 44.816406 6.578125 44.816406 6.777344 C 44.816406 6.925781 44.816406 7.070312 44.816406 7.21875 C 44.992188 7.21875 45.171875 7.21875 45.351562 7.21875 C 45.554688 7.21875 45.554688 7.527344 45.351562 7.527344 C 45.171875 7.527344 44.992188 7.527344 44.816406 7.527344 C 44.816406 7.835938 44.816406 8.148438 44.816406 8.457031 L 55.503906 14.390625 L 34.101562 14.390625 Z M 59.082031 22.824219 L 57.648438 22.824219 L 57.648438 10.289062 C 57.90625 10.167969 58.15625 10.050781 58.386719 9.9375 C 58.613281 10.046875 58.84375 10.167969 59.082031 10.296875 Z M 58.492188 19.820312 C 58.492188 19.621094 58.179688 19.621094 58.179688 19.820312 C 58.179688 20.75 58.179688 21.683594 58.179688 22.617188 C 58.179688 22.816406 58.492188 22.816406 58.492188 22.617188 C 58.492188 21.683594 58.492188 20.75 58.492188 19.820312 Z M 31.515625 22.082031 C 31.515625 21.328125 31.515625 20.574219 31.515625 19.820312 C 31.515625 19.621094 31.824219 19.621094 31.824219 19.820312 C 31.824219 20.574219 31.824219 21.332031 31.824219 22.089844 C 31.921875 22.078125 32.019531 22.074219 32.113281 22.078125 L 32.113281 10.296875 C 31.878906 10.167969 31.644531 10.046875 31.421875 9.9375 C 31.1875 10.050781 30.941406 10.167969 30.679688 10.289062 L 30.679688 21.113281 C 31.0625 21.300781 31.378906 21.648438 31.515625 22.082031 Z M 45.234375 22.292969 L 45.234375 16.761719 L 46.699219 16.761719 L 46.699219 16.65625 C 46.699219 16.605469 46.695312 16.558594 46.691406 16.511719 C 46.691406 16.5 46.691406 16.488281 46.691406 16.480469 C 46.683594 16.4375 46.679688 16.394531 46.671875 16.351562 C 46.667969 16.335938 46.664062 16.320312 46.660156 16.304688 C 46.652344 16.277344 46.644531 16.25 46.636719 16.222656 C 46.628906 16.1875 46.617188 16.160156 46.609375 16.128906 C 46.601562 16.113281 46.597656 16.097656 46.59375 16.082031 C 46.574219 16.039062 46.554688 15.996094 46.535156 15.953125 C 46.53125 15.945312 46.527344 15.9375 46.523438 15.933594 L 45.234375 15.933594 L 45.234375 15.066406 C 45.195312 15.0625 45.15625 15.058594 45.117188 15.058594 C 45.109375 15.058594 45.101562 15.058594 45.089844 15.058594 L 44.125 15.058594 C 44.074219 15.058594 44.027344 15.0625 43.980469 15.066406 L 43.980469 15.933594 L 42.691406 15.933594 C 42.664062 15.980469 42.644531 16.03125 42.625 16.082031 C 42.617188 16.097656 42.613281 16.113281 42.605469 16.128906 C 42.597656 16.160156 42.585938 16.1875 42.578125 16.21875 C 42.570312 16.25 42.5625 16.277344 42.554688 16.304688 C 42.550781 16.320312 42.546875 16.335938 42.546875 16.351562 C 42.539062 16.394531 42.53125 16.4375 42.527344 16.480469 C 42.523438 16.488281 42.523438 16.5 42.523438 16.511719 C 42.519531 16.558594 42.515625 16.605469 42.515625 16.65625 L 42.515625 16.761719 L 43.980469 16.761719 L 43.980469 22.292969 L 44.847656 22.292969 C 44.847656 21.46875 44.847656 20.644531 44.847656 19.820312 C 44.847656 19.621094 45.160156 19.621094 45.160156 19.820312 C 45.160156 20.644531 45.160156 21.46875 45.160156 22.292969 Z M 34.15625 24.140625 C 31.34375 24.140625 28.53125 24.140625 25.722656 24.140625 C 25.523438 24.140625 25.523438 24.453125 25.722656 24.453125 C 30.730469 24.453125 35.738281 24.453125 40.746094 24.453125 C 45.730469 24.453125 50.710938 24.453125 55.695312 24.453125 C 56.273438 24.453125 56.855469 24.453125 57.4375 24.453125 C 57.539062 24.328125 57.660156 24.222656 57.792969 24.140625 C 54.894531 24.140625 52 24.140625 49.101562 24.140625 C 44.121094 24.140625 39.136719 24.140625 34.15625 24.140625 Z M 64.125 24.140625 C 62.441406 24.140625 60.753906 24.140625 59.066406 24.140625 C 59.207031 24.222656 59.332031 24.328125 59.441406 24.453125 C 61.003906 24.453125 62.566406 24.453125 64.125 24.453125 C 64.324219 24.453125 64.328125 24.140625 64.125 24.140625 Z M 54.296875 25.703125 C 54.488281 25.734375 54.679688 25.816406 54.855469 25.910156 C 54.882812 25.839844 54.917969 25.769531 54.957031 25.703125 C 54.738281 25.703125 54.515625 25.703125 54.296875 25.703125 Z M 53.503906 26.011719 C 53.613281 25.851562 53.789062 25.738281 53.972656 25.703125 C 52.109375 25.703125 50.242188 25.703125 48.378906 25.703125 C 44.257812 25.703125 40.136719 25.703125 36.019531 25.703125 C 33.695312 25.703125 31.371094 25.703125 29.046875 25.703125 C 28.84375 25.703125 28.84375 26.011719 29.046875 26.011719 C 33.1875 26.011719 37.328125 26.011719 41.46875 26.011719 C 45.480469 26.011719 49.492188 26.011719 53.503906 26.011719 Z M 57.226562 27.773438 C 54.019531 27.773438 50.808594 27.773438 47.601562 27.773438 C 44.410156 27.773438 41.214844 27.773438 38.023438 27.773438 C 36.222656 27.773438 34.421875 27.773438 32.621094 27.773438 C 32.417969 27.773438 32.417969 28.082031 32.621094 28.082031 C 35.828125 28.082031 39.039062 28.082031 42.246094 28.082031 C 45.441406 28.082031 48.632812 28.082031 51.824219 28.082031 C 53.625 28.082031 55.425781 28.082031 57.226562 28.082031 C 57.429688 28.082031 57.429688 27.773438 57.226562 27.773438 Z M 57.226562 27.773438 " fill-opacity="1" fill-rule="nonzero"/></g><g clip-path="url(#8ee53adad7)"><path fill="#2a7c69" d="M 40.972656 17.539062 L 40.972656 22.292969 L 40.160156 22.292969 C 40.160156 21.46875 40.160156 20.644531 40.160156 19.820312 C 40.160156 19.621094 39.847656 19.621094 39.847656 19.820312 C 39.847656 20.644531 39.847656 21.46875 39.847656 22.292969 L 38.492188 22.292969 C 38.492188 21.46875 38.492188 20.644531 38.492188 19.820312 C 38.492188 19.621094 38.179688 19.621094 38.179688 19.820312 C 38.179688 20.644531 38.179688 21.46875 38.179688 22.292969 L 37.402344 22.292969 L 37.402344 17.539062 C 37.402344 16.753906 38.042969 16.117188 38.832031 16.117188 L 39.542969 16.117188 C 40.332031 16.117188 40.972656 16.753906 40.972656 17.539062 Z M 50.382812 16.117188 L 49.671875 16.117188 C 48.882812 16.117188 48.242188 16.753906 48.242188 17.539062 L 48.242188 19.699219 C 48.332031 19.636719 48.492188 19.675781 48.492188 19.820312 C 48.492188 20.644531 48.492188 21.46875 48.492188 22.292969 L 49.847656 22.292969 C 49.847656 21.46875 49.847656 20.644531 49.847656 19.820312 C 49.847656 19.621094 50.160156 19.621094 50.160156 19.820312 C 50.160156 20.644531 50.160156 21.46875 50.160156 22.292969 L 51.515625 22.292969 C 51.515625 21.46875 51.515625 20.644531 51.515625 19.820312 C 51.515625 19.640625 51.761719 19.621094 51.8125 19.761719 L 51.8125 17.539062 C 51.8125 16.753906 51.171875 16.117188 50.382812 16.117188 Z M 61.972656 9.300781 C 62.597656 10.246094 62.847656 11.492188 62.644531 12.644531 C 61.640625 11.808594 60.296875 10.945312 59.082031 10.296875 C 58.84375 10.167969 58.613281 10.046875 58.386719 9.9375 C 58.15625 10.050781 57.90625 10.167969 57.648438 10.289062 C 56.390625 10.878906 54.90625 11.5625 53.925781 12.378906 C 53.722656 11.222656 53.972656 9.976562 54.601562 9.03125 C 54.886719 8.601562 55.25 8.238281 55.65625 7.957031 C 54.8125 7.363281 53.925781 6.84375 53.011719 6.402344 C 53.804688 5.628906 54.894531 5.25 55.941406 5.386719 C 56.410156 5.449219 56.863281 5.613281 57.277344 5.859375 C 57.308594 4.824219 57.269531 3.785156 57.167969 2.757812 C 58.160156 3.144531 58.996094 4.015625 59.410156 5.097656 C 59.503906 5.347656 59.574219 5.609375 59.625 5.875 C 60.046875 5.621094 60.511719 5.449219 60.988281 5.386719 C 62.035156 5.25 63.128906 5.628906 63.921875 6.402344 C 62.871094 6.910156 61.863281 7.515625 60.90625 8.21875 C 61.320312 8.5 61.683594 8.867188 61.972656 9.300781 Z M 58.421875 8.652344 C 58.421875 8.046875 57.925781 7.554688 57.316406 7.554688 C 56.703125 7.554688 56.210938 8.046875 56.210938 8.652344 C 56.210938 9.257812 56.703125 9.75 57.316406 9.75 C 57.925781 9.75 58.421875 9.257812 58.421875 8.652344 Z M 60.816406 7.460938 C 60.816406 6.855469 60.324219 6.363281 59.710938 6.363281 C 59.101562 6.363281 58.605469 6.855469 58.605469 7.460938 C 58.605469 8.066406 59.101562 8.558594 59.710938 8.558594 C 60.324219 8.558594 60.816406 8.066406 60.816406 7.460938 Z M 28.691406 7.957031 C 27.84375 7.363281 26.960938 6.84375 26.042969 6.402344 C 26.835938 5.628906 27.929688 5.25 28.976562 5.386719 C 29.441406 5.449219 29.894531 5.613281 30.3125 5.859375 C 30.339844 4.824219 30.300781 3.785156 30.199219 2.757812 C 31.195312 3.144531 32.03125 4.015625 32.441406 5.097656 C 32.539062 5.347656 32.609375 5.609375 32.660156 5.875 C 33.082031 5.621094 33.542969 5.449219 34.023438 5.386719 C 35.070312 5.25 36.160156 5.628906 36.953125 6.402344 C 35.90625 6.910156 34.894531 7.515625 33.941406 8.21875 C 34.351562 8.5 34.714844 8.867188 35.003906 9.300781 C 35.632812 10.246094 35.882812 11.492188 35.675781 12.644531 C 34.675781 11.808594 33.328125 10.945312 32.113281 10.296875 C 31.878906 10.167969 31.644531 10.046875 31.421875 9.9375 C 31.1875 10.050781 30.941406 10.167969 30.679688 10.289062 C 29.421875 10.878906 27.9375 11.5625 26.960938 12.378906 C 26.753906 11.222656 27.003906 9.976562 27.632812 9.03125 C 27.917969 8.601562 28.28125 8.238281 28.691406 7.957031 Z M 31.640625 7.460938 C 31.640625 8.066406 32.132812 8.558594 32.746094 8.558594 C 33.355469 8.558594 33.851562 8.066406 33.851562 7.460938 C 33.851562 6.855469 33.355469 6.363281 32.746094 6.363281 C 32.132812 6.363281 31.640625 6.855469 31.640625 7.460938 Z M 29.242188 8.652344 C 29.242188 9.257812 29.738281 9.75 30.347656 9.75 C 30.957031 9.75 31.453125 9.257812 31.453125 8.652344 C 31.453125 8.046875 30.957031 7.554688 30.347656 7.554688 C 29.738281 7.554688 29.242188 8.046875 29.242188 8.652344 Z M 45.234375 15.066406 L 45.234375 15.933594 L 46.523438 15.933594 C 46.277344 15.453125 45.800781 15.113281 45.234375 15.066406 Z M 42.515625 22.292969 L 43.179688 22.292969 C 43.179688 21.46875 43.179688 20.644531 43.179688 19.820312 C 43.179688 19.621094 43.492188 19.621094 43.492188 19.820312 C 43.492188 20.644531 43.492188 21.46875 43.492188 22.292969 L 43.980469 22.292969 L 43.980469 16.761719 L 42.515625 16.761719 Z M 45.234375 22.292969 L 46.515625 22.292969 C 46.515625 21.46875 46.515625 20.644531 46.515625 19.820312 C 46.515625 19.707031 46.613281 19.65625 46.699219 19.671875 L 46.699219 16.761719 L 45.234375 16.761719 Z M 42.691406 15.933594 L 43.980469 15.933594 L 43.980469 15.066406 C 44.027344 15.0625 44.074219 15.058594 44.125 15.058594 C 43.496094 15.058594 42.957031 15.414062 42.691406 15.933594 Z M 45.089844 15.058594 C 45.101562 15.058594 45.109375 15.058594 45.117188 15.058594 C 45.109375 15.058594 45.101562 15.058594 45.089844 15.058594 Z M 61.652344 25.613281 C 61.546875 25.496094 61.40625 25.410156 61.257812 25.351562 C 60.878906 25.195312 60.441406 25.183594 60.054688 25.324219 C 59.984375 25.351562 59.910156 25.386719 59.84375 25.425781 C 59.835938 25.351562 59.828125 25.277344 59.816406 25.207031 C 59.761719 24.917969 59.625 24.660156 59.441406 24.453125 C 59.332031 24.328125 59.207031 24.222656 59.066406 24.140625 C 58.828125 24 58.558594 23.933594 58.289062 23.964844 C 58.113281 23.984375 57.945312 24.046875 57.792969 24.140625 C 57.660156 24.222656 57.539062 24.328125 57.4375 24.453125 C 57.1875 24.742188 57.027344 25.132812 57.027344 25.535156 C 56.742188 25.167969 56.28125 24.980469 55.851562 25.054688 C 55.488281 25.117188 55.160156 25.363281 54.957031 25.703125 C 54.917969 25.769531 54.882812 25.839844 54.855469 25.910156 C 54.679688 25.816406 54.488281 25.734375 54.296875 25.703125 C 54.195312 25.6875 54.097656 25.683594 53.996094 25.699219 C 53.988281 25.699219 53.980469 25.699219 53.972656 25.703125 C 53.789062 25.738281 53.613281 25.851562 53.503906 26.011719 C 53.441406 26.101562 53.398438 26.210938 53.390625 26.328125 L 53.378906 26.640625 L 59.835938 26.613281 L 59.832031 26.601562 L 61.964844 26.601562 C 61.933594 26.25 61.890625 25.871094 61.652344 25.613281 Z M 36.515625 22.230469 C 36.40625 22.132812 36.285156 22.046875 36.160156 21.972656 C 36 21.882812 35.824219 21.816406 35.648438 21.773438 C 35.488281 21.738281 35.320312 21.722656 35.160156 21.734375 C 35.054688 21.738281 34.949219 21.753906 34.847656 21.78125 C 34.75 21.808594 34.65625 21.84375 34.566406 21.890625 C 34.066406 22.140625 33.691406 22.632812 33.699219 23.25 C 33.628906 23.0625 33.53125 22.894531 33.414062 22.75 C 33.34375 22.660156 33.265625 22.578125 33.179688 22.507812 C 32.878906 22.25 32.5 22.101562 32.113281 22.078125 C 32.019531 22.074219 31.921875 22.078125 31.824219 22.089844 C 31.726562 22.101562 31.628906 22.121094 31.535156 22.148438 C 31.527344 22.125 31.519531 22.105469 31.515625 22.082031 C 31.378906 21.648438 31.0625 21.300781 30.679688 21.113281 C 30.546875 21.046875 30.40625 21 30.261719 20.976562 C 30.226562 20.96875 30.191406 20.964844 30.160156 20.960938 C 30.054688 20.953125 29.953125 20.953125 29.847656 20.960938 C 29.410156 21 28.980469 21.203125 28.632812 21.507812 C 28.585938 21.472656 28.539062 21.441406 28.492188 21.410156 C 28.394531 21.351562 28.289062 21.308594 28.179688 21.28125 C 27.890625 21.199219 27.574219 21.226562 27.296875 21.367188 C 27.113281 21.460938 26.953125 21.605469 26.824219 21.78125 C 26.660156 22.007812 26.550781 22.292969 26.527344 22.589844 C 26.523438 22.585938 26.519531 22.585938 26.515625 22.582031 C 26.292969 22.492188 25.949219 22.390625 25.683594 22.496094 C 25.054688 22.75 25.105469 23.644531 25.105469 23.644531 L 37.050781 23.644531 L 37.050781 23.136719 C 37.007812 22.941406 36.929688 22.761719 36.824219 22.601562 C 36.738281 22.464844 36.632812 22.339844 36.515625 22.230469 Z M 36.515625 22.230469 " fill-opacity="1" fill-rule="nonzero"/></g><g fill="#ff914d" fill-opacity="1"><g transform="translate(4.880083, 36.50169)"><g><path d="M 6.34375 -2.171875 C 6.84375 -2.171875 7.351562 -2.285156 7.875 -2.515625 C 8.40625 -2.753906 8.957031 -3.144531 9.53125 -3.6875 L 10.84375 -2.21875 C 10.101562 -1.425781 9.300781 -0.820312 8.4375 -0.40625 C 7.570312 0 6.71875 0.203125 5.875 0.203125 C 5.125 0.203125 4.441406 0.0507812 3.828125 -0.25 C 3.210938 -0.5625 2.703125 -0.976562 2.296875 -1.5 C 1.898438 -2.03125 1.617188 -2.644531 1.453125 -3.34375 C 1.285156 -4.050781 1.265625 -4.796875 1.390625 -5.578125 C 1.515625 -6.367188 1.773438 -7.109375 2.171875 -7.796875 C 2.566406 -8.492188 3.050781 -9.101562 3.625 -9.625 C 4.207031 -10.15625 4.859375 -10.570312 5.578125 -10.875 C 6.296875 -11.175781 7.03125 -11.328125 7.78125 -11.328125 C 8.488281 -11.328125 9.140625 -11.195312 9.734375 -10.9375 C 10.328125 -10.675781 10.882812 -10.242188 11.40625 -9.640625 L 9.75 -7.953125 C 9.375 -8.359375 9 -8.628906 8.625 -8.765625 C 8.257812 -8.910156 7.859375 -8.984375 7.421875 -8.984375 C 6.992188 -8.984375 6.570312 -8.894531 6.15625 -8.71875 C 5.75 -8.539062 5.378906 -8.296875 5.046875 -7.984375 C 4.722656 -7.679688 4.441406 -7.320312 4.203125 -6.90625 C 3.972656 -6.5 3.820312 -6.054688 3.75 -5.578125 C 3.675781 -5.109375 3.6875 -4.664062 3.78125 -4.25 C 3.875 -3.84375 4.039062 -3.484375 4.28125 -3.171875 C 4.519531 -2.867188 4.8125 -2.625 5.15625 -2.4375 C 5.507812 -2.257812 5.90625 -2.171875 6.34375 -2.171875 Z M 6.34375 -2.171875 "/></g></g></g><g fill="#ff914d" fill-opacity="1"><g transform="translate(15.768289, 36.50169)"><g><path d="M 2.515625 -11.171875 L 9.5 -11.171875 L 9.15625 -9 L 4.578125 -9 L 4.25 -6.984375 L 8.296875 -6.984375 L 7.953125 -4.8125 L 3.90625 -4.8125 L 3.484375 -2.15625 L 8.078125 -2.15625 L 7.734375 0 L 0.75 0 Z M 2.515625 -11.171875 "/></g></g></g><g fill="#ff914d" fill-opacity="1"><g transform="translate(24.198376, 36.50169)"><g><path d="M 8.703125 -6.078125 C 9.085938 -5.773438 9.375 -5.382812 9.5625 -4.90625 C 9.75 -4.425781 9.800781 -3.898438 9.71875 -3.328125 C 9.632812 -2.867188 9.472656 -2.4375 9.234375 -2.03125 C 8.992188 -1.625 8.695312 -1.269531 8.34375 -0.96875 C 7.988281 -0.664062 7.597656 -0.425781 7.171875 -0.25 C 6.742188 -0.0820312 6.296875 0 5.828125 0 L 0.75 0 L 2.515625 -11.171875 L 7.4375 -11.171875 C 7.863281 -11.171875 8.25 -11.085938 8.59375 -10.921875 C 8.9375 -10.765625 9.222656 -10.550781 9.453125 -10.28125 C 9.679688 -10.007812 9.84375 -9.6875 9.9375 -9.3125 C 10.039062 -8.945312 10.0625 -8.554688 10 -8.140625 C 9.925781 -7.679688 9.773438 -7.28125 9.546875 -6.9375 C 9.316406 -6.601562 9.035156 -6.316406 8.703125 -6.078125 Z M 4.25 -6.984375 L 6.78125 -6.984375 C 7.0625 -6.984375 7.316406 -7.082031 7.546875 -7.28125 C 7.773438 -7.476562 7.914062 -7.722656 7.96875 -8.015625 C 8.019531 -8.296875 7.957031 -8.53125 7.78125 -8.71875 C 7.601562 -8.90625 7.375 -9 7.09375 -9 L 4.578125 -9 Z M 6.171875 -2.15625 C 6.328125 -2.15625 6.476562 -2.191406 6.625 -2.265625 C 6.78125 -2.335938 6.914062 -2.4375 7.03125 -2.5625 C 7.15625 -2.6875 7.257812 -2.828125 7.34375 -2.984375 C 7.425781 -3.148438 7.484375 -3.320312 7.515625 -3.5 C 7.566406 -3.863281 7.503906 -4.171875 7.328125 -4.421875 C 7.148438 -4.679688 6.90625 -4.8125 6.59375 -4.8125 L 3.90625 -4.8125 L 3.484375 -2.15625 Z M 6.171875 -2.15625 "/></g></g></g><g fill="#00bf63" fill-opacity="1"><g transform="translate(33.889905, 36.50169)"><g><path d="M 0.359375 -11.171875 L 8.453125 -11.171875 L 8.453125 -9 L 5.59375 -9 L 5.59375 0 L 3.21875 0 L 3.21875 -9 L 0.359375 -9 Z M 0.359375 -11.171875 "/></g></g></g><g fill="#00bf63" fill-opacity="1"><g transform="translate(42.635134, 36.50169)"><g><path d="M 6.015625 -11.328125 C 6.773438 -11.328125 7.488281 -11.175781 8.15625 -10.875 C 8.832031 -10.570312 9.421875 -10.15625 9.921875 -9.625 C 10.421875 -9.101562 10.816406 -8.492188 11.109375 -7.796875 C 11.398438 -7.109375 11.546875 -6.367188 11.546875 -5.578125 C 11.546875 -4.804688 11.398438 -4.066406 11.109375 -3.359375 C 10.816406 -2.648438 10.421875 -2.03125 9.921875 -1.5 C 9.421875 -0.976562 8.832031 -0.5625 8.15625 -0.25 C 7.488281 0.0507812 6.773438 0.203125 6.015625 0.203125 C 5.265625 0.203125 4.550781 0.0507812 3.875 -0.25 C 3.207031 -0.5625 2.625 -0.976562 2.125 -1.5 C 1.632812 -2.03125 1.242188 -2.648438 0.953125 -3.359375 C 0.660156 -4.066406 0.515625 -4.804688 0.515625 -5.578125 C 0.515625 -6.367188 0.660156 -7.109375 0.953125 -7.796875 C 1.242188 -8.492188 1.632812 -9.101562 2.125 -9.625 C 2.625 -10.15625 3.207031 -10.570312 3.875 -10.875 C 4.550781 -11.175781 5.265625 -11.328125 6.015625 -11.328125 Z M 6.015625 -2.171875 C 6.453125 -2.171875 6.859375 -2.257812 7.234375 -2.4375 C 7.609375 -2.625 7.9375 -2.867188 8.21875 -3.171875 C 8.507812 -3.484375 8.734375 -3.84375 8.890625 -4.25 C 9.054688 -4.664062 9.140625 -5.109375 9.140625 -5.578125 C 9.140625 -6.054688 9.054688 -6.5 8.890625 -6.90625 C 8.734375 -7.320312 8.507812 -7.6875 8.21875 -8 C 7.9375 -8.3125 7.609375 -8.554688 7.234375 -8.734375 C 6.859375 -8.910156 6.453125 -9 6.015625 -9 C 5.585938 -9 5.179688 -8.910156 4.796875 -8.734375 C 4.421875 -8.554688 4.09375 -8.3125 3.8125 -8 C 3.53125 -7.6875 3.304688 -7.320312 3.140625 -6.90625 C 2.984375 -6.5 2.90625 -6.054688 2.90625 -5.578125 C 2.90625 -5.109375 2.984375 -4.664062 3.140625 -4.25 C 3.304688 -3.84375 3.53125 -3.484375 3.8125 -3.171875 C 4.09375 -2.867188 4.421875 -2.625 4.796875 -2.4375 C 5.179688 -2.257812 5.585938 -2.171875 6.015625 -2.171875 Z M 6.015625 -2.171875 "/></g></g></g><g fill="#00bf63" fill-opacity="1"><g transform="translate(54.626342, 36.50169)"><g><path d="M 7.0625 -11.171875 L 9.4375 -11.171875 L 9.4375 -4.03125 C 9.4375 -3.476562 9.320312 -2.941406 9.09375 -2.421875 C 8.863281 -1.910156 8.546875 -1.457031 8.140625 -1.0625 C 7.742188 -0.675781 7.28125 -0.367188 6.75 -0.140625 C 6.21875 0.0859375 5.648438 0.203125 5.046875 0.203125 C 4.441406 0.203125 3.867188 0.0859375 3.328125 -0.140625 C 2.796875 -0.367188 2.332031 -0.675781 1.9375 -1.0625 C 1.550781 -1.457031 1.238281 -1.910156 1 -2.421875 C 0.769531 -2.941406 0.65625 -3.476562 0.65625 -4.03125 L 0.65625 -11.171875 L 3.046875 -11.171875 L 3.046875 -4.515625 C 3.046875 -4.191406 3.097656 -3.890625 3.203125 -3.609375 C 3.304688 -3.335938 3.445312 -3.09375 3.625 -2.875 C 3.800781 -2.65625 4.015625 -2.484375 4.265625 -2.359375 C 4.515625 -2.234375 4.773438 -2.171875 5.046875 -2.171875 C 5.328125 -2.171875 5.585938 -2.234375 5.828125 -2.359375 C 6.078125 -2.484375 6.289062 -2.65625 6.46875 -2.875 C 6.65625 -3.09375 6.800781 -3.335938 6.90625 -3.609375 C 7.007812 -3.890625 7.0625 -4.191406 7.0625 -4.515625 Z M 7.0625 -11.171875 "/></g></g></g><g fill="#00bf63" fill-opacity="1"><g transform="translate(64.647905, 36.50169)"><g><path d="M 8.78125 -7.84375 C 8.78125 -7.488281 8.726562 -7.148438 8.625 -6.828125 C 8.53125 -6.515625 8.394531 -6.222656 8.21875 -5.953125 C 8.039062 -5.679688 7.820312 -5.441406 7.5625 -5.234375 C 7.3125 -5.035156 7.039062 -4.875 6.75 -4.75 L 10.453125 0 L 7.65625 0 L 4.203125 -4.515625 L 3.140625 -4.515625 L 3.140625 0 L 0.734375 0 L 0.734375 -11.171875 L 5.5625 -11.171875 C 6.007812 -11.171875 6.425781 -11.082031 6.8125 -10.90625 C 7.207031 -10.738281 7.550781 -10.503906 7.84375 -10.203125 C 8.132812 -9.910156 8.363281 -9.5625 8.53125 -9.15625 C 8.695312 -8.75 8.78125 -8.3125 8.78125 -7.84375 Z M 5.265625 -6.6875 C 5.566406 -6.6875 5.828125 -6.796875 6.046875 -7.015625 C 6.273438 -7.242188 6.390625 -7.519531 6.390625 -7.84375 C 6.390625 -8.164062 6.273438 -8.4375 6.046875 -8.65625 C 5.828125 -8.882812 5.566406 -9 5.265625 -9 L 3.140625 -9 L 3.140625 -6.6875 Z M 5.265625 -6.6875 "/></g></g></g><g fill="#00bf63" fill-opacity="1"><g transform="translate(75.410052, 36.50169)"><g><path d="M 7.84375 -5.75 C 8.289062 -5.488281 8.628906 -5.148438 8.859375 -4.734375 C 9.085938 -4.328125 9.203125 -3.859375 9.203125 -3.328125 C 9.203125 -2.816406 9.082031 -2.34375 8.84375 -1.90625 C 8.601562 -1.476562 8.257812 -1.09375 7.8125 -0.75 C 7.414062 -0.445312 6.960938 -0.210938 6.453125 -0.046875 C 5.941406 0.109375 5.40625 0.191406 4.84375 0.203125 C 4.269531 0.203125 3.722656 0.125 3.203125 -0.03125 C 2.691406 -0.1875 2.238281 -0.421875 1.84375 -0.734375 C 1.25 -1.191406 0.835938 -1.738281 0.609375 -2.375 L 2.828125 -3.40625 C 2.828125 -3.300781 2.863281 -3.171875 2.9375 -3.015625 C 3.007812 -2.859375 3.125 -2.703125 3.28125 -2.546875 C 3.4375 -2.398438 3.640625 -2.273438 3.890625 -2.171875 C 4.140625 -2.066406 4.453125 -2.015625 4.828125 -2.015625 C 5.117188 -2.015625 5.375 -2.050781 5.59375 -2.125 C 5.820312 -2.195312 6.015625 -2.285156 6.171875 -2.390625 C 6.328125 -2.503906 6.441406 -2.632812 6.515625 -2.78125 C 6.597656 -2.925781 6.640625 -3.070312 6.640625 -3.21875 C 6.640625 -3.382812 6.582031 -3.539062 6.46875 -3.6875 C 6.363281 -3.832031 6.191406 -3.945312 5.953125 -4.03125 C 5.535156 -4.175781 5.09375 -4.300781 4.625 -4.40625 C 4.15625 -4.507812 3.695312 -4.632812 3.25 -4.78125 C 2.8125 -4.9375 2.40625 -5.140625 2.03125 -5.390625 C 1.65625 -5.640625 1.359375 -5.992188 1.140625 -6.453125 C 0.929688 -6.847656 0.828125 -7.269531 0.828125 -7.71875 C 0.828125 -8.226562 0.945312 -8.71875 1.1875 -9.1875 C 1.425781 -9.664062 1.75 -10.066406 2.15625 -10.390625 C 2.550781 -10.691406 2.988281 -10.921875 3.46875 -11.078125 C 3.945312 -11.242188 4.457031 -11.328125 5 -11.328125 C 5.53125 -11.328125 6.039062 -11.25 6.53125 -11.09375 C 7.019531 -10.9375 7.457031 -10.707031 7.84375 -10.40625 C 8.226562 -10.125 8.53125 -9.789062 8.75 -9.40625 L 6.953125 -8.1875 C 6.734375 -8.488281 6.457031 -8.726562 6.125 -8.90625 C 5.789062 -9.09375 5.421875 -9.1875 5.015625 -9.1875 C 4.441406 -9.1875 4 -9.0625 3.6875 -8.8125 C 3.382812 -8.5625 3.234375 -8.226562 3.234375 -7.8125 C 3.234375 -7.625 3.316406 -7.457031 3.484375 -7.3125 C 3.660156 -7.164062 3.890625 -7.035156 4.171875 -6.921875 C 4.453125 -6.804688 4.765625 -6.703125 5.109375 -6.609375 C 5.453125 -6.523438 5.796875 -6.4375 6.140625 -6.34375 C 6.484375 -6.257812 6.804688 -6.164062 7.109375 -6.0625 C 7.410156 -5.96875 7.65625 -5.863281 7.84375 -5.75 Z M 7.84375 -5.75 "/></g></g></g><g fill="#440e0e" fill-opacity="1"><g transform="translate(23.002223, 40.731214)"><g><path d="M 0.40625 0 L 0.40625 -3.4375 L 3.015625 -3.4375 L 3.015625 -3.0625 L 0.875 -3.0625 L 0.875 -1.953125 L 2.875 -1.953125 L 2.875 -1.578125 L 0.875 -1.578125 L 0.875 -0.375 L 3.125 -0.375 L 3.125 0 Z M 0.40625 0 "/></g></g></g><g fill="#440e0e" fill-opacity="1"><g transform="translate(27.091686, 40.731214)"><g><path d="M 1.953125 0 L 1.25 -1.078125 L 0.53125 0 L 0.0625 0 L 1 -1.359375 L 0.09375 -2.640625 L 0.59375 -2.640625 L 1.25 -1.609375 L 1.90625 -2.640625 L 2.390625 -2.640625 L 1.5 -1.359375 L 2.453125 0 Z M 1.953125 0 "/></g></g></g><g fill="#440e0e" fill-opacity="1"><g transform="translate(30.345316, 40.731214)"><g><path d="M 2.578125 -1.328125 C 2.578125 -0.410156 2.25 0.046875 1.59375 0.046875 C 1.1875 0.046875 0.914062 -0.101562 0.78125 -0.40625 L 0.765625 -0.40625 C 0.773438 -0.394531 0.78125 -0.257812 0.78125 0 L 0.78125 1.03125 L 0.34375 1.03125 L 0.34375 -2.109375 C 0.34375 -2.378906 0.335938 -2.554688 0.328125 -2.640625 L 0.75 -2.640625 C 0.75 -2.628906 0.75 -2.601562 0.75 -2.5625 C 0.757812 -2.53125 0.765625 -2.472656 0.765625 -2.390625 C 0.765625 -2.304688 0.765625 -2.25 0.765625 -2.21875 L 0.78125 -2.21875 C 0.863281 -2.382812 0.96875 -2.503906 1.09375 -2.578125 C 1.21875 -2.648438 1.382812 -2.6875 1.59375 -2.6875 C 1.925781 -2.6875 2.171875 -2.578125 2.328125 -2.359375 C 2.492188 -2.140625 2.578125 -1.796875 2.578125 -1.328125 Z M 2.109375 -1.328125 C 2.109375 -1.691406 2.054688 -1.953125 1.953125 -2.109375 C 1.859375 -2.265625 1.703125 -2.34375 1.484375 -2.34375 C 1.304688 -2.34375 1.171875 -2.304688 1.078125 -2.234375 C 0.984375 -2.160156 0.910156 -2.046875 0.859375 -1.890625 C 0.804688 -1.734375 0.78125 -1.535156 0.78125 -1.296875 C 0.78125 -0.941406 0.832031 -0.679688 0.9375 -0.515625 C 1.050781 -0.359375 1.234375 -0.28125 1.484375 -0.28125 C 1.703125 -0.28125 1.859375 -0.359375 1.953125 -0.515625 C 2.054688 -0.671875 2.109375 -0.941406 2.109375 -1.328125 Z M 2.109375 -1.328125 "/></g></g></g><g fill="#440e0e" fill-opacity="1"><g transform="translate(33.880003, 40.731214)"><g><path d="M 0.34375 0 L 0.34375 -3.625 L 0.78125 -3.625 L 0.78125 0 Z M 0.34375 0 "/></g></g></g><g fill="#440e0e" fill-opacity="1"><g transform="translate(35.743021, 40.731214)"><g><path d="M 2.578125 -1.328125 C 2.578125 -0.859375 2.472656 -0.507812 2.265625 -0.28125 C 2.054688 -0.0625 1.757812 0.046875 1.375 0.046875 C 0.988281 0.046875 0.695312 -0.0664062 0.5 -0.296875 C 0.300781 -0.535156 0.203125 -0.878906 0.203125 -1.328125 C 0.203125 -2.234375 0.597656 -2.6875 1.390625 -2.6875 C 1.796875 -2.6875 2.09375 -2.578125 2.28125 -2.359375 C 2.476562 -2.140625 2.578125 -1.796875 2.578125 -1.328125 Z M 2.109375 -1.328125 C 2.109375 -1.691406 2.050781 -1.953125 1.9375 -2.109375 C 1.832031 -2.273438 1.65625 -2.359375 1.40625 -2.359375 C 1.144531 -2.359375 0.957031 -2.273438 0.84375 -2.109375 C 0.726562 -1.941406 0.671875 -1.679688 0.671875 -1.328125 C 0.671875 -0.972656 0.726562 -0.707031 0.84375 -0.53125 C 0.957031 -0.363281 1.132812 -0.28125 1.375 -0.28125 C 1.632812 -0.28125 1.820312 -0.363281 1.9375 -0.53125 C 2.050781 -0.695312 2.109375 -0.960938 2.109375 -1.328125 Z M 2.109375 -1.328125 "/></g></g></g><g fill="#440e0e" fill-opacity="1"><g transform="translate(39.277707, 40.731214)"><g><path d="M 0.34375 0 L 0.34375 -2.03125 C 0.34375 -2.21875 0.335938 -2.421875 0.328125 -2.640625 L 0.75 -2.640625 C 0.757812 -2.335938 0.765625 -2.160156 0.765625 -2.109375 L 0.78125 -2.109375 C 0.84375 -2.328125 0.921875 -2.476562 1.015625 -2.5625 C 1.109375 -2.644531 1.238281 -2.6875 1.40625 -2.6875 C 1.457031 -2.6875 1.515625 -2.679688 1.578125 -2.671875 L 1.578125 -2.265625 C 1.523438 -2.273438 1.445312 -2.28125 1.34375 -2.28125 C 1.164062 -2.28125 1.023438 -2.203125 0.921875 -2.046875 C 0.828125 -1.890625 0.78125 -1.664062 0.78125 -1.375 L 0.78125 0 Z M 0.34375 0 "/></g></g></g><g fill="#440e0e" fill-opacity="1"><g transform="translate(41.695502, 40.731214)"><g><path d="M 0.328125 -3.203125 L 0.328125 -3.625 L 0.78125 -3.625 L 0.78125 -3.203125 Z M 0.328125 0 L 0.328125 -2.640625 L 0.78125 -2.640625 L 0.78125 0 Z M 0.328125 0 "/></g></g></g><g fill="#440e0e" fill-opacity="1"><g transform="translate(43.558519, 40.731214)"><g><path d="M 2.015625 0 L 2.015625 -1.671875 C 2.015625 -1.847656 1.992188 -1.984375 1.953125 -2.078125 C 1.921875 -2.171875 1.867188 -2.238281 1.796875 -2.28125 C 1.722656 -2.320312 1.613281 -2.34375 1.46875 -2.34375 C 1.257812 -2.34375 1.09375 -2.269531 0.96875 -2.125 C 0.84375 -1.988281 0.78125 -1.789062 0.78125 -1.53125 L 0.78125 0 L 0.34375 0 L 0.34375 -2.078125 C 0.34375 -2.390625 0.335938 -2.578125 0.328125 -2.640625 L 0.75 -2.640625 C 0.75 -2.628906 0.75 -2.601562 0.75 -2.5625 C 0.75 -2.53125 0.75 -2.492188 0.75 -2.453125 C 0.757812 -2.410156 0.765625 -2.320312 0.765625 -2.1875 L 0.78125 -2.1875 C 0.875 -2.375 0.988281 -2.503906 1.125 -2.578125 C 1.257812 -2.648438 1.425781 -2.6875 1.625 -2.6875 C 1.90625 -2.6875 2.113281 -2.613281 2.25 -2.46875 C 2.382812 -2.332031 2.453125 -2.097656 2.453125 -1.765625 L 2.453125 0 Z M 2.015625 0 "/></g></g></g><g fill="#440e0e" fill-opacity="1"><g transform="translate(47.093205, 40.731214)"><g><path d="M 1.34375 1.03125 C 1.050781 1.03125 0.816406 0.972656 0.640625 0.859375 C 0.472656 0.753906 0.363281 0.597656 0.3125 0.390625 L 0.765625 0.328125 C 0.796875 0.441406 0.859375 0.53125 0.953125 0.59375 C 1.054688 0.664062 1.1875 0.703125 1.34375 0.703125 C 1.78125 0.703125 2 0.445312 2 -0.0625 L 2 -0.484375 C 1.914062 -0.316406 1.800781 -0.191406 1.65625 -0.109375 C 1.507812 -0.0234375 1.34375 0.015625 1.15625 0.015625 C 0.832031 0.015625 0.59375 -0.0859375 0.4375 -0.296875 C 0.28125 -0.515625 0.203125 -0.851562 0.203125 -1.3125 C 0.203125 -1.78125 0.285156 -2.125 0.453125 -2.34375 C 0.617188 -2.570312 0.867188 -2.6875 1.203125 -2.6875 C 1.390625 -2.6875 1.550781 -2.640625 1.6875 -2.546875 C 1.820312 -2.460938 1.925781 -2.34375 2 -2.1875 L 2.015625 -2.1875 C 2.015625 -2.238281 2.015625 -2.320312 2.015625 -2.4375 C 2.023438 -2.5625 2.035156 -2.628906 2.046875 -2.640625 L 2.453125 -2.640625 C 2.441406 -2.554688 2.4375 -2.375 2.4375 -2.09375 L 2.4375 -0.078125 C 2.4375 0.660156 2.070312 1.03125 1.34375 1.03125 Z M 2 -1.328125 C 2 -1.535156 1.96875 -1.71875 1.90625 -1.875 C 1.851562 -2.03125 1.773438 -2.148438 1.671875 -2.234375 C 1.566406 -2.316406 1.445312 -2.359375 1.3125 -2.359375 C 1.082031 -2.359375 0.914062 -2.273438 0.8125 -2.109375 C 0.71875 -1.953125 0.671875 -1.691406 0.671875 -1.328125 C 0.671875 -0.960938 0.71875 -0.703125 0.8125 -0.546875 C 0.90625 -0.390625 1.066406 -0.3125 1.296875 -0.3125 C 1.441406 -0.3125 1.566406 -0.347656 1.671875 -0.421875 C 1.773438 -0.503906 1.851562 -0.617188 1.90625 -0.765625 C 1.96875 -0.921875 2 -1.109375 2 -1.328125 Z M 2 -1.328125 "/></g></g></g><g fill="#440e0e" fill-opacity="1"><g transform="translate(50.627892, 40.731214)"><g/></g></g><g fill="#440e0e" fill-opacity="1"><g transform="translate(52.769521, 40.731214)"><g><path d="M 1.9375 -3.109375 C 1.550781 -3.109375 1.253906 -2.984375 1.046875 -2.734375 C 0.835938 -2.492188 0.734375 -2.160156 0.734375 -1.734375 C 0.734375 -1.316406 0.84375 -0.976562 1.0625 -0.71875 C 1.28125 -0.457031 1.578125 -0.328125 1.953125 -0.328125 C 2.429688 -0.328125 2.796875 -0.566406 3.046875 -1.046875 L 3.421875 -0.859375 C 3.273438 -0.566406 3.070312 -0.34375 2.8125 -0.1875 C 2.5625 -0.03125 2.269531 0.046875 1.9375 0.046875 C 1.582031 0.046875 1.28125 -0.0234375 1.03125 -0.171875 C 0.78125 -0.316406 0.585938 -0.519531 0.453125 -0.78125 C 0.316406 -1.050781 0.25 -1.367188 0.25 -1.734375 C 0.25 -2.285156 0.394531 -2.710938 0.6875 -3.015625 C 0.988281 -3.328125 1.398438 -3.484375 1.921875 -3.484375 C 2.296875 -3.484375 2.601562 -3.410156 2.84375 -3.265625 C 3.09375 -3.128906 3.273438 -2.921875 3.390625 -2.640625 L 2.953125 -2.5 C 2.867188 -2.695312 2.738281 -2.847656 2.5625 -2.953125 C 2.382812 -3.054688 2.175781 -3.109375 1.9375 -3.109375 Z M 1.9375 -3.109375 "/></g></g></g><g fill="#440e0e" fill-opacity="1"><g transform="translate(57.135155, 40.731214)"><g><path d="M 0.671875 -1.234375 C 0.671875 -0.929688 0.734375 -0.695312 0.859375 -0.53125 C 0.984375 -0.363281 1.164062 -0.28125 1.40625 -0.28125 C 1.601562 -0.28125 1.757812 -0.316406 1.875 -0.390625 C 1.988281 -0.472656 2.066406 -0.570312 2.109375 -0.6875 L 2.484375 -0.578125 C 2.328125 -0.160156 1.96875 0.046875 1.40625 0.046875 C 1.019531 0.046875 0.722656 -0.0664062 0.515625 -0.296875 C 0.316406 -0.535156 0.21875 -0.882812 0.21875 -1.34375 C 0.21875 -1.78125 0.316406 -2.113281 0.515625 -2.34375 C 0.722656 -2.570312 1.015625 -2.6875 1.390625 -2.6875 C 2.171875 -2.6875 2.5625 -2.21875 2.5625 -1.28125 L 2.5625 -1.234375 Z M 2.109375 -1.5625 C 2.078125 -1.84375 2.003906 -2.046875 1.890625 -2.171875 C 1.773438 -2.296875 1.609375 -2.359375 1.390625 -2.359375 C 1.171875 -2.359375 1 -2.285156 0.875 -2.140625 C 0.75 -2.003906 0.679688 -1.8125 0.671875 -1.5625 Z M 2.109375 -1.5625 "/></g></g></g><g fill="#440e0e" fill-opacity="1"><g transform="translate(60.669841, 40.731214)"><g><path d="M 2.578125 -1.328125 C 2.578125 -0.410156 2.25 0.046875 1.59375 0.046875 C 1.394531 0.046875 1.226562 0.0078125 1.09375 -0.0625 C 0.96875 -0.132812 0.863281 -0.25 0.78125 -0.40625 L 0.765625 -0.40625 C 0.765625 -0.351562 0.757812 -0.273438 0.75 -0.171875 C 0.75 -0.078125 0.75 -0.0195312 0.75 0 L 0.328125 0 C 0.335938 -0.0820312 0.34375 -0.265625 0.34375 -0.546875 L 0.34375 -3.625 L 0.78125 -3.625 L 0.78125 -2.59375 C 0.78125 -2.488281 0.773438 -2.363281 0.765625 -2.21875 L 0.78125 -2.21875 C 0.863281 -2.382812 0.96875 -2.503906 1.09375 -2.578125 C 1.226562 -2.648438 1.394531 -2.6875 1.59375 -2.6875 C 1.925781 -2.6875 2.171875 -2.570312 2.328125 -2.34375 C 2.492188 -2.125 2.578125 -1.785156 2.578125 -1.328125 Z M 2.109375 -1.3125 C 2.109375 -1.6875 2.054688 -1.953125 1.953125 -2.109375 C 1.859375 -2.265625 1.703125 -2.34375 1.484375 -2.34375 C 1.234375 -2.34375 1.050781 -2.257812 0.9375 -2.09375 C 0.832031 -1.925781 0.78125 -1.660156 0.78125 -1.296875 C 0.78125 -0.941406 0.832031 -0.679688 0.9375 -0.515625 C 1.050781 -0.359375 1.234375 -0.28125 1.484375 -0.28125 C 1.703125 -0.28125 1.859375 -0.359375 1.953125 -0.515625 C 2.054688 -0.679688 2.109375 -0.945312 2.109375 -1.3125 Z M 2.109375 -1.3125 "/></g></g></g><g fill="#440e0e" fill-opacity="1"><g transform="translate(64.204528, 40.731214)"><g><path d="M 0.765625 -2.640625 L 0.765625 -0.96875 C 0.765625 -0.789062 0.78125 -0.65625 0.8125 -0.5625 C 0.851562 -0.46875 0.910156 -0.398438 0.984375 -0.359375 C 1.054688 -0.316406 1.164062 -0.296875 1.3125 -0.296875 C 1.519531 -0.296875 1.6875 -0.363281 1.8125 -0.5 C 1.9375 -0.644531 2 -0.847656 2 -1.109375 L 2 -2.640625 L 2.4375 -2.640625 L 2.4375 -0.5625 C 2.4375 -0.257812 2.441406 -0.0703125 2.453125 0 L 2.03125 0 C 2.03125 -0.0078125 2.03125 -0.03125 2.03125 -0.0625 C 2.03125 -0.101562 2.023438 -0.144531 2.015625 -0.1875 C 2.015625 -0.238281 2.015625 -0.328125 2.015625 -0.453125 L 2 -0.453125 C 1.90625 -0.265625 1.789062 -0.132812 1.65625 -0.0625 C 1.519531 0.0078125 1.351562 0.046875 1.15625 0.046875 C 0.875 0.046875 0.664062 -0.0234375 0.53125 -0.171875 C 0.394531 -0.316406 0.328125 -0.550781 0.328125 -0.875 L 0.328125 -2.640625 Z M 0.765625 -2.640625 "/></g></g></g></svg>